# xmcd
#
# Track frame offsets: 
#        150
#        19307
#        44342
#        68607
#        94672
#        164402
#        190358
#        260152
#        296498
#
# Disc length: 4347 seconds
#
# Revision: 0
# Processed by: cddbd v1.5.2PL0 Copyright (c) Steve Scherf et al.
# Submitted via: ExactAudioCopyFreeDBPlugin 1.0
#
DISCID=8110f909
DTITLE=Aulos Blasorchester - aulos Blasorchester
DYEAR=2002
DGENRE=Classical
TTITLE0=Scherzo à la russe
TTITLE1=Hornkonzert Nr. 1
TTITLE2=Hornkonzert Nr. 1
TTITLE3=Hornkonzert Nr. 1
TTITLE4=Till Eulenspiegel
TTITLE5=Early Light
TTITLE6=Harrisons's Dream
TTITLE7=The Lost World
TTITLE8=Gaelforce
EXTD=
EXTT0=
EXTT1=
EXTT2=
EXTT3=
EXTT4=
EXTT5=
EXTT6=
EXTT7=
EXTT8=
PLAYORDER=
